<?xml version="1.0" encoding="utf-8"?>
<!-- Generator: Adobe Illustrator 25.0.1, SVG Export Plug-In . SVG Version: 6.00 Build 0)  -->
<svg version="1.1" id="Layer_1" xmlns="http://www.w3.org/2000/svg" xmlns:xlink="http://www.w3.org/1999/xlink" x="0px" y="0px"
	 viewBox="0 0 108 108" style="enable-background:new 0 0 108 108;" xml:space="preserve">
<style type="text/css">
	.st0{fill:#418CE1;}
</style>
<g id="Infrared_Thermometer_Gun" transform="translate(-32)">
	<g id="Glyph" transform="translate(32)">
		<path id="Path_10731" class="st0" d="M27.472,45.252c0.149-0.377,7-26.143,7.023-26.219c-2.027,0.148-3.715,0.96-4.474,2.842
			c0,0-6.641,16.673-6.641,16.812C23.226,41.518,24.862,44.143,27.472,45.252z"/>
		<path id="Path_10732" class="st0" d="M37.599,19c-0.498,0-0.932,0.336-1.058,0.818l-6.539,25.064
			c-3.352,7.439-5.156,20.7-1.869,34.275h24.156c-1.26-8.489-1.172-18.857,2.626-24.55c4.5-6.752,12.776-7.2,18.777-7.173V19H37.599
			z M62.755,27.75h4.38c0.604-0.018,1.108,0.457,1.127,1.06c0.018,0.604-0.457,1.108-1.06,1.127c-0.022,0.001-0.044,0.001-0.066,0
			h-4.38c-0.604-0.018-1.079-0.523-1.06-1.127C61.712,28.232,62.177,27.767,62.755,27.75z M51.818,27.75h4.375
			c0.604-0.018,1.108,0.457,1.127,1.06c0.018,0.604-0.457,1.108-1.06,1.127c-0.022,0.001-0.044,0.001-0.066,0h-4.375
			c-0.604-0.018-1.079-0.523-1.06-1.127C50.775,28.232,51.24,27.767,51.818,27.75z M40.881,27.75h4.374
			c0.604-0.018,1.108,0.457,1.127,1.06c0.018,0.604-0.457,1.108-1.06,1.127c-0.022,0.001-0.044,0.001-0.066,0H40.88
			c-0.604-0.018-1.079-0.523-1.06-1.127c0.017-0.578,0.482-1.043,1.06-1.06H40.881z M43.069,40.875
			c-2.416,0.001-4.375-1.958-4.376-4.374c-0.001-2.416,1.958-4.375,4.374-4.376c2.416-0.001,4.375,1.958,4.376,4.374
			c0,0,0,0.001,0,0.001c0,2.416-1.959,4.375-4.375,4.375l0,0H43.069z M54.007,40.875c-2.416,0.001-4.376-1.957-4.377-4.373
			c-0.001-2.416,1.957-4.376,4.373-4.377c2.416-0.001,4.376,1.957,4.377,4.373c0,0.001,0,0.001,0,0.002
			c0,2.416-1.959,4.375-4.375,4.375l0,0H54.007z M64.945,40.875c-2.416,0.001-4.376-1.957-4.377-4.373
			c-0.001-2.416,1.957-4.376,4.373-4.377c2.416-0.001,4.376,1.957,4.377,4.373c0,0.001,0,0.001,0,0.002
			c0,2.416-1.959,4.375-4.375,4.375l0,0H64.945z"/>
		<path id="Path_10733" class="st0" d="M28.751,81.343c0.628,2.377,1.418,4.708,2.366,6.977c0.168,0.411,0.568,0.68,1.012,0.68
			h15.708c1.564,0.003,3.045-0.701,4.03-1.916c1.721-2.116,1.094-4.148,0.785-5.74L28.751,81.343z"/>
		<path id="Path_10734" class="st0" d="M80.255,47.437H75.88V19h4.375c2.416,0,4.375,1.959,4.375,4.375v19.687
			C84.63,45.478,82.671,47.437,80.255,47.437z"/>
		<path id="Path_10735" class="st0" d="M60.742,52.077c-4.566,2.636-6.189,7.219-6.751,12.831c-0.061,0.601,0.377,1.138,0.978,1.199
			c0.068,0.007,0.137,0.007,0.205,0.001c3.123-0.288,6.326-1.048,8.239-2.483c0.367-0.275,0.523-0.75,0.391-1.189
			c-0.863-3.065-1.341-6.226-1.42-9.41c-0.001-0.605-0.491-1.094-1.096-1.094c-0.191,0-0.379,0.05-0.545,0.146L60.742,52.077z"/>
	</g>
</g>
</svg>
